<svg width="32" height="32" viewBox="0 0 32 32" xmlns="http://www.w3.org/2000/svg">
<path d="M16 8.00004V5.33337M16 8.00004C15.2928 8.00004 14.6145 8.28099 14.1144 8.78109C13.6143 9.28119 13.3334 9.95946 13.3334 10.6667C13.3334 11.374 13.6143 12.0522 14.1144 12.5523C14.6145 13.0524 15.2928 13.3334 16 13.3334M16 8.00004C16.7073 8.00004 17.3856 8.28099 17.8857 8.78109C18.3858 9.28119 18.6667 9.95946 18.6667 10.6667C18.6667 11.374 18.3858 12.0522 17.8857 12.5523C17.3856 13.0524 16.7073 13.3334 16 13.3334M16 13.3334V26.6667M8.00004 24C8.70728 24 9.38556 23.7191 9.88566 23.219C10.3858 22.7189 10.6667 22.0406 10.6667 21.3334C10.6667 20.6261 10.3858 19.9479 9.88566 19.4478C9.38556 18.9477 8.70728 18.6667 8.00004 18.6667M8.00004 24C7.2928 24 6.61452 23.7191 6.11442 23.219C5.61433 22.7189 5.33337 22.0406 5.33337 21.3334C5.33337 20.6261 5.61433 19.9479 6.11442 19.4478C6.61452 18.9477 7.2928 18.6667 8.00004 18.6667M8.00004 24V26.6667M8.00004 18.6667V5.33337M24 24C24.7073 24 25.3856 23.7191 25.8857 23.219C26.3858 22.7189 26.6667 22.0406 26.6667 21.3334C26.6667 20.6261 26.3858 19.9479 25.8857 19.4478C25.3856 18.9477 24.7073 18.6667 24 18.6667M24 24C23.2928 24 22.6145 23.7191 22.1144 23.219C21.6143 22.7189 21.3334 22.0406 21.3334 21.3334C21.3334 20.6261 21.6143 19.9479 22.1144 19.4478C22.6145 18.9477 23.2928 18.6667 24 18.6667M24 24V26.6667M24 18.6667V5.33337" stroke-linecap="round" stroke-linejoin="round"/>
</svg>
