<svg width="18" height="18" viewBox="0 0 18 18" xmlns="http://www.w3.org/2000/svg">
<path d="M2.25 3.75C2.25 3.35218 2.40804 2.97064 2.68934 2.68934C2.97064 2.40804 3.35218 2.25 3.75 2.25H6.21C6.36735 2.25012 6.52067 2.29972 6.64827 2.39179C6.77587 2.48385 6.87128 2.61372 6.921 2.763L8.0445 6.13275C8.10143 6.304 8.09469 6.49004 8.02554 6.65673C7.95638 6.82342 7.82944 6.95959 7.668 7.04025L5.97525 7.88775C6.80499 9.72415 8.27585 11.195 10.1122 12.0248L10.9597 10.332C11.0404 10.1706 11.1766 10.0436 11.3433 9.97446C11.51 9.90531 11.696 9.89857 11.8672 9.9555L15.237 11.079C15.3864 11.1288 15.5164 11.2243 15.6084 11.352C15.7005 11.4798 15.75 11.6333 15.75 11.7907V14.25C15.75 14.6478 15.592 15.0294 15.3107 15.3107C15.0294 15.592 14.6478 15.75 14.25 15.75H13.5C7.287 15.75 2.25 10.713 2.25 4.5V3.75Z" stroke-linecap="round" stroke-linejoin="round"/>
</svg>
